# xmcd
#
# Track frame offsets:
#	150
#	14710
#	28860
#	46019
#	58405
#	83605
#	90548
#	95896
#	104661
#	120966
#	134661
#	150271
#	154923
#	166082
#	182587
#	194392
#	201437
#	213072
#	222288
#	228456
#	241658
#
# Disc length: 3371 seconds
#
# Revision: 1
# Processed by: cddbd v1.5.2PL0 Copyright (c) Steve Scherf et al.
# Submitted via: audiograbber 1.83.01
#
DISCID=1d0d2915
DTITLE=TARGINO GONDIM - AS MAIS PEDIDAS
DYEAR=1900
DGENRE=FORRÓ
TTITLE0=MAIS UMA CHANCE
TTITLE1=A NOITE ME CHAMOU
TTITLE2=MINHA DOCE ESTRELA
TTITLE3=ESPERANDO NA JANELA
TTITLE4=NUMA SALA DE REBOCO
TTITLE5=TOCA PRA NÓS DOIS
TTITLE6=O XOTE DAS MENINAS
TTITLE7=ATÉ MAIS VÊ
TTITLE8=FINGINDO QUE NÃO TÁ
TTITLE9=MENINOS
TTITLE10=CULPA DO MEU CORAÇÃO
TTITLE11=PARAÍBA
TTITLE12=ASA BRANCA
TTITLE13=A VOLTA DA ASA BRANCA
TTITLE14=SÉTIMO CÉU
TTITLE15=SE TU QUISER
TTITLE16=DANCE FORRÓ MAIS EU
TTITLE17=PRA SE ANINHAR
TTITLE18=LUGAR QUE TEM AMOR
TTITLE19=CHIÔ, CHINELA
TTITLE20=EU SÓ QUERO UM XODÓ
EXTD=
EXTT0=
EXTT1=
EXTT2=
EXTT3=
EXTT4=
EXTT5=
EXTT6=
EXTT7=
EXTT8=
EXTT9=
EXTT10=
EXTT11=
EXTT12=
EXTT13=
EXTT14=
EXTT15=
EXTT16=
EXTT17=
EXTT18=
EXTT19=
EXTT20=
PLAYORDER=
